{
  "source": "C:\\Users\\Peter\\Desktop\\stuff\\MIUN\\quantitative_research\\video_compression\\videos\\BVI-HD\\BVI-HD_CDVL_videos\\ORIG\\Grass_1920x1080_60fps.mp4",
  "output": "C:\\Users\\Peter\\Desktop\\stuff\\MIUN\\quantitative_research\\video_compression\\compressed_videos\\BVI-HD\\av1\\3\\Grass_1920x1080_60fps_av1.mkv",
  "codec": "av1",
  "ok": "Input #0, mov,mp4,m4a,3gp,3g2,mj2, from 'C:\\Users\\Peter\\Desktop\\stuff\\MIUN\\quantitative_research\\video_compression\\videos\\BVI-HD\\BVI-HD_CDVL_videos\\ORIG\\Grass_1920x1080_60fps.mp4':\n  Metadata:\n    major_brand     : isom\n    minor_version   : 512\n    compatible_brands: isomiso2avc1mp41\n    encoder         : Lavf54.28.101\n  Duration: 00:00:05.00, start: 0.000000, bitrate: 655968 kb/s\n  Stream #0:0[0x1](und): Video: h264 (High 4:4:4 Predictive) (avc1 / 0x31637661), yuv420p(progressive), 1920x1080, 655963 kb/s, 60 fps, 60 tbr, 60 tbn (default)\n    Metadata:\n      handler_name    : VideoHandler\n      vendor_id       : [0][0][0][0]\n[out#0/matroska @ 000001f100069180] Codec AVOption b:a (set bitrate (in bits/s)) has not been used for any stream. The most likely reason is either wrong type (e.g. a video option with no video streams) or that it is a private option of some decoder which was not actually used for any stream.\nStream mapping:\n  Stream #0:0 -> #0:0 (h264 (native) -> av1 (libsvtav1))\nPress [q] to stop, [?] for help\nSvt[info]: -------------------------------------------\nSvt[info]: SVT [version]:\tSVT-AV1 Encoder Lib v3.1.0-19-g6ecfe8ec\nSvt[info]: SVT [build]  :\tGCC 15.2.0\t 64 bit\nSvt[info]: LIB Build date: Aug 17 2025 11:37:13\nSvt[info]: -------------------------------------------\nSvt[info]: Level of Parallelism: 5\nSvt[info]: Number of PPCS 93\nSvt[info]: [asm level on system : up to avx2]\nSvt[info]: [asm level selected : up to avx2]\nSvt[info]: -------------------------------------------\nSvt[info]: SVT [config]: main profile\ttier (auto)\tlevel (auto)\nSvt[info]: SVT [config]: width / height / fps numerator / fps denominator \t\t: 1920 / 1080 / 60 / 1\nSvt[info]: SVT [config]: bit-depth / color format \t\t\t\t\t: 8 / YUV420\nSvt[info]: SVT [config]: preset / tune / pred struct \t\t\t\t\t: 4 / PSNR / random access\nSvt[info]: SVT [config]: gop size / mini-gop size / key-frame type \t\t\t: 321 / 16 / key frame\nSvt[info]: SVT [config]: BRC mode / target bitrate (kbps)\t\t\t\t: VBR / 3000 \nSvt[info]: SVT [config]: AQ mode / Variance Boost \t\t\t\t\t: 2 / 0\nSvt[info]: SVT [config]: sharpness / luminance-based QP bias \t\t\t\t: 0 / 0\nSvt[info]: SVT [config]: QP scale compress strength \t\t\t\t\t: 0\nSvt[info]: -------------------------------------------\nOutput #0, matroska, to 'C:\\Users\\Peter\\Desktop\\stuff\\MIUN\\quantitative_research\\video_compression\\compressed_videos\\BVI-HD\\av1\\3\\Grass_1920x1080_60fps_av1.mkv':\n  Metadata:\n    major_brand     : isom\n    minor_version   : 512\n    compatible_brands: isomiso2avc1mp41\n    encoder         : Lavf62.3.100\n  Stream #0:0(und): Video: av1 (AV01 / 0x31305641), yuv420p(tv, progressive), 1920x1080, q=2-31, 3000 kb/s, 60 fps, 1k tbn (default)\n    Metadata:\n      encoder         : Lavc62.11.100 libsvtav1\n      handler_name    : VideoHandler\n      vendor_id       : [0][0][0][0]\n    Side data:\n      cpb: bitrate max/min/avg: 0/0/3000000 buffer size: 3000000 vbv_delay: N/A\nframe=    0 fps=0.0 q=0.0 size=       0KiB time=N/A bitrate=N/A speed=N/A elapsed=0:00:01.02    \nframe=    0 fps=0.0 q=0.0 size=       0KiB time=N/A bitrate=N/A speed=N/A elapsed=0:00:01.58    \nframe=    0 fps=0.0 q=0.0 size=       0KiB time=N/A bitrate=N/A speed=N/A elapsed=0:00:02.13    \nframe=    0 fps=0.0 q=0.0 size=       0KiB time=N/A bitrate=N/A speed=N/A elapsed=0:00:02.72    \nframe=    0 fps=0.0 q=0.0 size=       0KiB time=N/A bitrate=N/A speed=N/A elapsed=0:00:03.27    \nframe=    0 fps=0.0 q=0.0 size=       0KiB time=N/A bitrate=N/A speed=N/A elapsed=0:00:03.79    \nframe=    0 fps=0.0 q=0.0 size=       0KiB time=N/A bitrate=N/A speed=N/A elapsed=0:00:04.31    \nframe=    0 fps=0.0 q=0.0 size=       0KiB time=N/A bitrate=N/A speed=N/A elapsed=0:00:04.82    \nframe=    0 fps=0.0 q=0.0 size=       0KiB time=N/A bitrate=N/A speed=N/A elapsed=0:00:05.34    \nframe=    0 fps=0.0 q=0.0 size=       0KiB time=N/A bitrate=N/A speed=N/A elapsed=0:00:05.88    \nframe=    0 fps=0.0 q=0.0 size=       0KiB time=N/A bitrate=N/A speed=N/A elapsed=0:00:06.40    \nframe=    1 fps=0.1 q=20.0 size=       1KiB time=00:00:00.00 bitrate=N/A speed=   0x elapsed=0:00:06.92    \nframe=    1 fps=0.1 q=20.0 size=       1KiB time=00:00:00.00 bitrate=N/A speed=   0x elapsed=0:00:07.44    \nframe=    2 fps=0.3 q=50.0 size=       1KiB time=00:00:00.01 bitrate= 341.8kbits/s speed=0.00209x elapsed=0:00:07.97    \nframe=    7 fps=0.8 q=48.0 size=       1KiB time=00:00:00.10 bitrate=  57.0kbits/s speed=0.0117x elapsed=0:00:08.51    \nframe=   13 fps=1.4 q=46.0 size=       1KiB time=00:00:00.20 bitrate=  28.5kbits/s speed=0.0221x elapsed=0:00:09.03    \nframe=   15 fps=1.6 q=48.0 size=       1KiB time=00:00:00.23 bitrate=  24.4kbits/s speed=0.0244x elapsed=0:00:09.56    \nframe=   22 fps=2.2 q=49.0 size=       1KiB time=00:00:00.33 bitrate=  17.1kbits/s speed=0.033x elapsed=0:00:10.10    \nframe=   26 fps=2.4 q=49.0 size=       1KiB time=00:00:00.41 bitrate=  13.7kbits/s speed=0.0391x elapsed=0:00:10.65    \nframe=   30 fps=2.7 q=49.0 size=       1KiB time=00:00:00.48 bitrate=  11.8kbits/s speed=0.0432x elapsed=0:00:11.18    \nframe=   33 fps=2.8 q=31.0 size=       1KiB time=00:00:00.53 bitrate=  10.7kbits/s speed=0.0455x elapsed=0:00:11.71    \nframe=   38 fps=3.1 q=49.0 size=       1KiB time=00:00:00.61 bitrate=   9.2kbits/s speed=0.0503x elapsed=0:00:12.25    \nframe=   44 fps=3.4 q=49.0 size=       1KiB time=00:00:00.71 bitrate=   7.9kbits/s speed=0.056x elapsed=0:00:12.78    \nframe=   47 fps=3.5 q=48.0 size=       1KiB time=00:00:00.76 bitrate=   7.4kbits/s speed=0.0575x elapsed=0:00:13.32    \nframe=   51 fps=3.7 q=47.0 size=       1KiB time=00:00:00.83 bitrate=   6.8kbits/s speed=0.0601x elapsed=0:00:13.85    \nframe=   56 fps=3.9 q=48.0 size=       1KiB time=00:00:00.91 bitrate=   6.2kbits/s speed=0.0637x elapsed=0:00:14.39    \nframe=   62 fps=4.1 q=48.0 size=       1KiB time=00:00:01.01 bitrate=   5.6kbits/s speed=0.0679x elapsed=0:00:14.97    \nframe=   66 fps=4.3 q=48.0 size=       1KiB time=00:00:01.08 bitrate=   5.3kbits/s speed=0.0699x elapsed=0:00:15.49    \nframe=   71 fps=4.4 q=47.0 size=       1KiB time=00:00:01.16 bitrate=   4.9kbits/s speed=0.0727x elapsed=0:00:16.05    \nframe=   78 fps=4.7 q=45.0 size=       1KiB time=00:00:01.28 bitrate=   4.4kbits/s speed=0.0774x elapsed=0:00:16.57    \nframe=   82 fps=4.8 q=48.0 size=       1KiB time=00:00:01.35 bitrate=   4.2kbits/s speed=0.0789x elapsed=0:00:17.10    \nframe=   87 fps=4.9 q=47.0 size=       1KiB time=00:00:01.43 bitrate=   4.0kbits/s speed=0.0813x elapsed=0:00:17.63    \nframe=   94 fps=5.2 q=48.0 size=       1KiB time=00:00:01.55 bitrate=   3.7kbits/s speed=0.0853x elapsed=0:00:18.16    \nframe=   96 fps=5.1 q=48.0 size=       1KiB time=00:00:01.58 bitrate=   3.6kbits/s speed=0.0847x elapsed=0:00:18.70    \nframe=  102 fps=5.3 q=48.0 size=       1KiB time=00:00:01.68 bitrate=   3.4kbits/s speed=0.0875x elapsed=0:00:19.23    \nframe=  106 fps=5.4 q=48.0 size=       1KiB time=00:00:01.75 bitrate=   3.3kbits/s speed=0.0886x elapsed=0:00:19.76    \nframe=  110 fps=5.4 q=48.0 size=       1KiB time=00:00:01.81 bitrate=   3.1kbits/s speed=0.0896x elapsed=0:00:20.27    \nframe=  112 fps=5.4 q=48.0 size=       1KiB time=00:00:01.85 bitrate=   3.1kbits/s speed=0.0889x elapsed=0:00:20.81    \nframe=  117 fps=5.5 q=45.0 size=       1KiB time=00:00:01.93 bitrate=   2.9kbits/s speed=0.0904x elapsed=0:00:21.38    \nframe=  119 fps=5.4 q=47.0 size=       1KiB time=00:00:01.96 bitrate=   2.9kbits/s speed=0.0897x elapsed=0:00:21.92    \nframe=  125 fps=5.6 q=45.0 size=       1KiB time=00:00:02.03 bitrate=   2.8kbits/s speed=0.0905x elapsed=0:00:22.47    \nframe=  126 fps=5.5 q=48.0 size=       1KiB time=00:00:02.08 bitrate=   2.7kbits/s speed=0.0902x elapsed=0:00:23.10    \nframe=  127 fps=5.3 q=47.0 size=       1KiB time=00:00:02.10 bitrate=   2.7kbits/s speed=0.0884x elapsed=0:00:23.76    \nframe=  131 fps=5.4 q=47.0 size=       1KiB time=00:00:02.16 bitrate=   2.6kbits/s speed=0.0888x elapsed=0:00:24.40    \nframe=  134 fps=5.3 q=48.0 size=       1KiB time=00:00:02.21 bitrate=   2.6kbits/s speed=0.0884x elapsed=0:00:25.08    \nframe=  138 fps=5.4 q=48.0 size=       1KiB time=00:00:02.28 bitrate=   2.5kbits/s speed=0.0889x elapsed=0:00:25.68    \nframe=  142 fps=5.4 q=48.0 size=       1KiB time=00:00:02.35 bitrate=   2.4kbits/s speed=0.0894x elapsed=0:00:26.29    \nframe=  143 fps=5.3 q=47.0 size=       1KiB time=00:00:02.35 bitrate=   2.4kbits/s speed=0.0874x elapsed=0:00:26.88    \nframe=  146 fps=5.3 q=48.0 size=       1KiB time=00:00:02.38 bitrate=   2.4kbits/s speed=0.0868x elapsed=0:00:27.44    \nframe=  150 fps=5.3 q=48.0 size=       1KiB time=00:00:02.48 bitrate=   2.3kbits/s speed=0.0884x elapsed=0:00:28.08    \nframe=  153 fps=5.3 q=41.0 size=       1KiB time=00:00:02.51 bitrate=   2.3kbits/s speed=0.0878x elapsed=0:00:28.67    \nframe=  157 fps=5.4 q=45.0 size=       1KiB time=00:00:02.60 bitrate=   2.2kbits/s speed=0.0889x elapsed=0:00:29.25    \nframe=  159 fps=5.3 q=47.0 size=       1KiB time=00:00:02.61 bitrate=   2.2kbits/s speed=0.0879x elapsed=0:00:29.76    \nframe=  164 fps=5.4 q=48.0 size=       1KiB time=00:00:02.71 bitrate=   2.1kbits/s speed=0.0896x elapsed=0:00:30.32    \nframe=  170 fps=5.5 q=48.0 size=       1KiB time=00:00:02.81 bitrate=   2.0kbits/s speed=0.0913x elapsed=0:00:30.86    \nframe=  174 fps=5.5 q=48.0 size=       1KiB time=00:00:02.88 bitrate=   2.0kbits/s speed=0.0917x elapsed=0:00:31.44    \nframe=  175 fps=5.5 q=47.0 size=       1KiB time=00:00:02.90 bitrate=   2.0kbits/s speed=0.0906x elapsed=0:00:31.99    \nframe=  182 fps=5.6 q=48.0 size=       1KiB time=00:00:03.01 bitrate=   1.9kbits/s speed=0.0927x elapsed=0:00:32.55    \nframe=  188 fps=5.7 q=48.0 size=       1KiB time=00:00:03.10 bitrate=   1.8kbits/s speed=0.0937x elapsed=0:00:33.10    \nframe=  191 fps=5.7 q=47.0 size=       1KiB time=00:00:03.16 bitrate=   1.8kbits/s speed=0.0941x elapsed=0:00:33.63    \nframe=  197 fps=5.8 q=44.0 size=       1KiB time=00:00:03.26 bitrate=   1.7kbits/s speed=0.0956x elapsed=0:00:34.16    \nframe=  202 fps=5.8 q=47.0 size=       1KiB time=00:00:03.35 bitrate=   1.7kbits/s speed=0.0966x elapsed=0:00:34.68    \nframe=  209 fps=5.9 q=32.0 size=       1KiB time=00:00:03.46 bitrate=   1.6kbits/s speed=0.0985x elapsed=0:00:35.20    \nframe=  213 fps=6.0 q=44.0 size=       1KiB time=00:00:03.50 bitrate=   1.6kbits/s speed=0.098x elapsed=0:00:35.71    \nframe=  217 fps=6.0 q=40.0 size=       1KiB time=00:00:03.60 bitrate=   1.6kbits/s speed=0.0993x elapsed=0:00:36.26    \nframe=  225 fps=6.1 q=32.0 size=       1KiB time=00:00:03.73 bitrate=   1.5kbits/s speed=0.101x elapsed=0:00:36.81    \nframe=  229 fps=6.1 q=44.0 size=       1KiB time=00:00:03.80 bitrate=   1.5kbits/s speed=0.102x elapsed=0:00:37.32    \nframe=  235 fps=6.2 q=46.0 size=       1KiB time=00:00:03.90 bitrate=   1.5kbits/s speed=0.103x elapsed=0:00:37.84    \nframe=  241 fps=6.3 q=32.0 size=       1KiB time=00:00:04.00 bitrate=   1.4kbits/s speed=0.104x elapsed=0:00:38.35    \nframe=  245 fps=6.3 q=44.0 size=       1KiB time=00:00:04.06 bitrate=   1.4kbits/s speed=0.105x elapsed=0:00:38.86    \nframe=  249 fps=6.3 q=40.0 size=       1KiB time=00:00:04.13 bitrate=   1.4kbits/s speed=0.105x elapsed=0:00:39.45    \nframe=  257 fps=6.4 q=32.0 size=       1KiB time=00:00:04.26 bitrate=   1.3kbits/s speed=0.107x elapsed=0:00:40.01    \nframe=  257 fps=6.3 q=32.0 size=       1KiB time=00:00:04.26 bitrate=   1.3kbits/s speed=0.105x elapsed=0:00:40.59    \nframe=  261 fps=6.3 q=44.0 size=       1KiB time=00:00:04.33 bitrate=   1.3kbits/s speed=0.105x elapsed=0:00:41.16    \nframe=  265 fps=6.3 q=40.0 size=       1KiB time=00:00:04.40 bitrate=   1.3kbits/s speed=0.105x elapsed=0:00:41.73    \nframe=  273 fps=6.5 q=32.0 size=       1KiB time=00:00:04.53 bitrate=   1.3kbits/s speed=0.107x elapsed=0:00:42.26    \nframe=  273 fps=6.4 q=32.0 size=       1KiB time=00:00:04.53 bitrate=   1.3kbits/s speed=0.106x elapsed=0:00:42.82    \nframe=  275 fps=6.3 q=44.0 size=       1KiB time=00:00:04.56 bitrate=   1.2kbits/s speed=0.105x elapsed=0:00:43.39    \nframe=  281 fps=6.4 q=39.0 size=       1KiB time=00:00:04.66 bitrate=   1.2kbits/s speed=0.106x elapsed=0:00:43.96    \nframe=  285 fps=6.4 q=40.0 size=       1KiB time=00:00:04.73 bitrate=   1.2kbits/s speed=0.106x elapsed=0:00:44.52    \n[out#0/matroska @ 000001f100069180] video:1867KiB audio:0KiB subtitle:0KiB other streams:0KiB global headers:0KiB muxing overhead: 0.111159%\nframe=  300 fps=6.7 q=46.0 Lsize=    1869KiB time=00:00:04.98 bitrate=3072.3kbits/s speed=0.111x elapsed=0:00:44.75    \n",
  "seconds": 45.393101930618286,
  "probe_out": {}
}